<svg xmlns="http://www.w3.org/2000/svg" xmlns:xlink="http://www.w3.org/1999/xlink" width="1200" height="1200" viewBox="0 0 1200 1200" fill="none"><g opacity="1"  transform="translate(0 0)  rotate(0)"><g opacity="1"  transform="translate(0 0)  rotate(0)"><mask id="bg-mask-0" fill="white"><use transform="translate(0 0)  rotate(0)" xlink:href="#path_0"></use></mask><g mask="url(#bg-mask-0)" ><g opacity="1"  transform="translate(65.6478271484375 83.79000854492188)  rotate(0)"><g opacity="1"  transform="translate(0 0)  rotate(0)"><g opacity="1"  transform="translate(0 0)  rotate(0)"><path id="路径 1" fill-rule="evenodd" fill="url(#linear_0)" opacity="1" d="M385.7 230.461C295.56 172.651 129.14 180.111 84.06 286.401C38.98 392.691 139.53 497.101 103.12 573.551C66.71 650.001 -54.63 758.141 28.59 888.651C111.81 1019.17 217.43 985.911 281 972.801C406.55 946.931 564.1 1158.38 741.35 998.681C843.48 906.671 995.58 1066.21 1054.85 868.151C1103.74 704.731 927.06 644.341 980.31 534.391C1036.93 417.461 1026.06 278.911 964.71 211.811C907.56 149.311 754.76 150.111 655.94 234.021C598.71 282.621 475.84 288.261 385.7 230.461Z"></path><path id="路径 2" fill-rule="evenodd" fill="url(#linear_1)" opacity="1" d="M392.595 885.286L474.335 844.406L606.265 883.086L698.515 803.186L772.395 816.396L860.075 885.286L1003.81 687.706L353.685 687.706L262.625 752.856L339.325 815.426L287.555 897.736L392.595 885.286Z"></path><g opacity="1"  transform="translate(63.5338134765625 343.9884338378906)  rotate(0)"><path id="路径 3" fill-rule="evenodd" fill="url(#linear_2)" opacity="1" d="M43.62 214.339C39.59 223.149 3.12 318.559 0.23 392.199C0.23 392.199 -5.86 434.509 45.14 433.949C87.71 433.479 86.58 394.479 86.43 381.339C85.86 328.039 44.39 214.279 44.39 214.279C44.39 214.279 44.07 213.359 43.62 214.339Z"></path><g opacity="1"  transform="translate(41.73809814453125 16.291748046875)  rotate(0)"><path id="路径 4" fill-rule="evenodd" fill="url(#linear_3)" opacity="1" d="M2.98 462.905L2.98 223.635C2.98 222.755 2.31 222.035 1.49 222.035C0.669999 222.035 0 222.755 0 223.635L0 462.905C0 463.785 0.669999 464.505 1.49 464.505C2.31 464.505 2.98 463.795 2.98 462.905Z"></path></g></g><g opacity="1"  transform="translate(826.4366455078125 298.3447570800781)  rotate(0)"><path id="路径 5" fill-rule="evenodd" fill="url(#linear_4)" opacity="1" d="M28.08 191.367C25.49 197.027 2.01 258.477 0.15 305.887C0.15 305.887 -3.78 333.127 29.07 332.777C56.48 332.487 55.75 307.367 55.65 298.907C55.28 264.577 28.58 191.317 28.58 191.317C28.58 191.317 28.37 190.727 28.08 191.367Z"></path><g opacity="1"  transform="translate(26.8758544921875 10.509613037109375)  rotate(0)"><path id="路径 6" fill-rule="evenodd" fill="url(#linear_5)" opacity="1" d="M1.90999 351.402L1.90999 197.352C1.90999 196.792 1.47999 196.322 0.949997 196.322C0.429998 196.322 0 196.772 0 197.352L0 351.402C0 351.962 0.419998 352.432 0.949997 352.432C1.47999 352.432 1.90999 351.962 1.90999 351.402Z"></path></g></g><path id="路径 7" fill-rule="evenodd" fill="url(#linear_6)" opacity="1" d="M598.507 41.895C569.887 41.895 546.677 66.855 546.677 97.645C546.677 128.435 569.887 153.395 598.507 153.395C627.137 153.395 650.347 128.435 650.347 97.645C650.347 66.855 627.137 41.895 598.507 41.895Z"></path><path id="路径 8" fill-rule="evenodd" fill="url(#linear_7)" opacity="1" d="M576.432 128.051C573.112 111.031 559.062 98.241 542.232 98.241C525.402 98.241 511.372 111.031 508.032 128.051L494.532 128.051C478.522 128.051 465.532 142.011 465.532 159.241C465.532 176.451 478.512 190.431 494.532 190.431L627.982 190.431C643.992 190.431 656.982 176.471 656.982 159.241C657.002 142.021 644.022 128.051 628.002 128.051L576.432 128.051Z"></path><g opacity="1"  transform="translate(938.828125 458.5108337402344)  rotate(0)"><path id="路径 9" fill-rule="evenodd" fill="url(#linear_8)" opacity="1" d="M20.75 271.15C9.29 271.15 0 281.14 0 293.47C0 305.79 9.29 315.78 20.75 315.78C32.21 315.78 41.5 305.79 41.5 293.47C41.5 281.14 32.21 271.15 20.75 271.15Z"></path><path id="路径 10" fill-rule="evenodd" fill="url(#linear_9)" opacity="1" d="M21.4617 347.955L21.4617 277.455C21.4617 277.065 21.1817 276.765 20.8217 276.765C20.4618 276.765 20.1818 277.065 20.1818 277.455L20.1818 347.955C20.1818 348.335 20.4618 348.645 20.8217 348.645C21.1617 348.645 21.4617 348.335 21.4617 347.955Z"></path></g></g><g opacity="1"  transform="translate(178.8841552734375 148.69921875)  rotate(0)"><g opacity="1"  transform="translate(330.77044677734375 200.86370849609375)  rotate(0)"><path id="路径 11" fill-rule="evenodd" fill="url(#linear_10)" opacity="1" d="M14.542 279.99L5.22196 277.9C5.22196 277.9 1.24195 283.61 2.13195 289.4C12.232 291.01 16.352 289 16.352 289L15.452 282.17L14.872 280.64L14.542 279.99Z"></path><path id="路径 12" fill-rule="evenodd" fill="url(#linear_11)" opacity="1" d="M15.45 282.186L18.36 216.676L0 216.676L0 282.186L15.45 282.186Z"></path><path id="路径 13" fill-rule="evenodd" style="fill:#D4E4FE" opacity="1" d="M2.82007 292.616C11.2301 293.556 15.3501 292.456 16.4701 292.066C16.6601 292.006 16.7701 291.806 16.7401 291.586C16.6501 291.026 16.4801 289.866 16.3301 288.826C11.7801 290.656 1.76007 288.826 1.76007 288.826C1.76007 288.826 2.01007 290.686 2.82007 292.616Z"></path></g><g opacity="1"  transform="translate(349.1324462890625 200.86370849609375)  rotate(0)"><path id="路径 14" fill-rule="evenodd" fill="url(#linear_12)" opacity="1" d="M2.90373 282.17L2.01373 289C2.01373 289 6.13374 291.01 16.2338 289.4C17.1238 283.61 13.1437 277.9 13.1437 277.9L3.81374 279.99L3.49374 280.64L2.90373 282.17Z"></path><path id="路径 15" fill-rule="evenodd" fill="url(#linear_13)" opacity="1" d="M18.36 216.676L0 216.676L2.91 282.186L18.36 282.186L18.36 216.676Z"></path><path id="路径 16" fill-rule="evenodd" style="fill:#D4E4FE" opacity="1" d="M2.03085 288.826C1.88085 289.866 1.71085 290.996 1.63085 291.556C1.60085 291.776 1.70085 291.966 1.89085 292.036C3.10085 292.466 7.71084 293.786 15.7208 292.096C16.5308 290.176 16.6008 288.826 16.6008 288.826C16.6008 288.826 6.58085 290.656 2.03085 288.826Z"></path></g><path id="路径 17" fill-rule="evenodd" style="fill:#AFB0E7" opacity="1" d="M241.243,604.164v63.55l-17.36,12.45l-10.62,-1.93v58.37l-17.37,12.45l-70.33,-81.34h-108.2003v-70.24l60.99,-230.36l17.37,-12.45h117.5403v249.5zM125.563,448.984l-42.2803,155.18h42.2803z"></path><path id="路径 18" fill-rule="evenodd" fill="url(#linear_14)" opacity="1" d="M223.88,616.594l-0.02,63.57h-27.98v68.89h-87.68v-68.89h-108.2v-70.24l78.36,-242.81h117.54v249.48zM108.22,461.424l-42.29,155.17h42.29z"></path><path id="路径 19" fill-rule="evenodd" style="fill:#AFB0E7" opacity="1" d="M708.721,604.164v63.55l-17.359,12.45l-10.621,-1.93v58.37l-17.37,12.45l-70.329,-81.34h-108.201v-70.24l60.99,-230.36l17.37,-12.45h117.54v249.5zM593.042,448.984l-42.281,155.18h42.281z"></path><path id="路径 20" fill-rule="evenodd" fill="url(#linear_15)" opacity="1" d="M691.359,616.594l-0.02,63.57h-27.98v68.89h-87.68v-68.89h-108.2v-70.24l78.36,-242.81h117.54v249.48zM575.679,461.424l-42.28,155.17h42.28z"></path><path id="路径 21" fill-rule="evenodd" style="fill:#AFB0E7" opacity="1" d="M378.787,354.664c48.98,0 88.69,40.98 88.69,91.51v211.35c0,50.54 -39.71,91.51 -88.69,91.51h-48.87c-48.98,0 -88.69,-40.97 -88.69,-91.51v-211.35c0,-50.53 39.71,-91.51 88.69,-91.51zM373.427,439.264c0,-10.88 -8.54,-19.69 -19.07,-19.69c-10.54,0 -19.08,8.81 -19.08,19.69v219.64c0,10.88 8.54,19.68 19.08,19.68c10.53,0 19.07,-8.8 19.07,-19.68z"></path><path id="路径 22" fill-rule="evenodd" fill="url(#linear_16)" opacity="1" d="M368.421,367.114c45.51,0 82.4,39.68 82.4,88.63v204.67c0,48.95 -36.89,88.62 -82.4,88.62h-45.39c-45.51,0 -82.4,-39.67 -82.4,-88.62v-204.67c0,-48.95 36.89,-88.63 82.4,-88.63zM363.451,449.054c0,-10.53 -7.93,-19.06 -17.72,-19.06c-9.78,0 -17.72,8.53 -17.72,19.06v212.7c0,10.53 7.94,19.06 17.72,19.06c9.79,0 17.72,-8.53 17.72,-19.06z"></path><g opacity="1"  transform="translate(285.46728515625 0)  rotate(0)"><path id="路径 23" fill-rule="evenodd" fill="url(#linear_17)" opacity="1" d="M10.5031 344.702C16.3631 369.922 40.9631 370.112 59.8931 362.702C73.6431 372.102 104.833 366.262 108.993 345.692C111.893 331.422 108.993 307.642 99.9231 300.722C90.8731 293.812 15.9631 300.722 15.9631 300.722C15.9631 300.722 6.52307 327.502 10.5031 344.702Z"></path><path id="路径 24" fill-rule="evenodd" fill="url(#linear_18)" opacity="1" d="M105.86 192.456C101.94 186.216 96.6 182.416 89.44 184.886C78.15 186.266 74.58 186.046 74.58 186.046C74.58 186.046 71.62 196.876 61.41 195.956C51.21 195.046 50.66 182.156 50.66 182.156C50.66 182.156 31.94 179.206 21.63 186.926C19.5 187.826 10.8 192.456 6.92 208.986C1.05 234.076 -5.34 269.356 7.33 284.726C9.13 286.926 11.29 289.126 13.64 291.276L10.5 312.296C10.5 315.706 12.92 318.486 15.92 318.486L103.25 318.486C106.24 318.486 108.67 315.706 108.67 312.296L105.54 292.416C108.38 289.896 110.98 287.316 113.13 284.726C125.82 269.356 119.44 234.096 113.56 209.006C111.7 201.016 108.7 195.816 105.86 192.456Z"></path><path id="路径 25" fill-rule="evenodd" fill="url(#linear_19)" opacity="1" d="M61.3802,227.745zM86.6502,148.675c11.11,6.34 17.0498,17.68 15.5698,24.39c10.22,8.29 14.25,17.52 10.04,30.26c-0.71,2.21 -1.68,4.25 -2.82,6.11c0.02,0 0.02,0.02 0.02,0.02c-0.06,0.11 -0.14,0.21 -0.2,0.32c-0.04,0.08 -0.1,0.16 -0.14,0.24c-5.29,8.55 -13.9698,12.37 -22.4698,13.11c-8.68,0.77 -13.23,-4.56 -19.58,1.52c-1.48,1.41 -3.48,2.44 -5.69,3.1c-0.01,0.01 -0.04,0.01 -0.06,0.01c-0.91,0.28 -1.83,0.48 -2.79,0.63c-19.79,4.11 -31.23,-3.1 -31.23,-3.1c0,0 -1.72,-1.41 -12.68,-9.54c-23.30999,-22.06 -5.03999,-40.48 0.91,-43.96c-0.76,-15.26 13.99,-23.86 13.99,-23.86l0.63,-0.34c0.15,-1.15 0.25,-1.84 0.25,-1.84l0.03,-0.04c0.09,-2.19 0.43,-4.66 1.08,-7.49c3.35,-14.66 13.72,-21.79 27.64,-21.56c11.21,-3.11 27.59,11.92 27.5,32.02z"></path></g></g></g></g><g opacity="1" transform="translate(385 1033)  rotate(0)"><a xlink:href="https://" xlink:title="跳转" target="_blank"><text><tspan x="44.5" y="55.68" font-size="48" line-height="0" fill="#5480E5" opacity="1" font-family="SourceHanSansCN-Bold" font-weight="Bold" letter-spacing="0" >抱歉，页面走丢了～</tspan></text></a></g></g></g></g><defs><rect id="path_0" x="0" y="0" width="1200" height="1200" /><linearGradient id="linear_0" x1="50.000457971393764%" y1="0.0004291038867449205%" x2="51.000457971393764%" y2="100.00015506965056%" gradientUnits="objectBoundingBox"><stop offset="0" stop-color="#F4F2FB" stop-opacity="1" /><stop offset="0.01" stop-color="#F4F2FB" stop-opacity="1" /><stop offset="1" stop-color="#E1EEF5" stop-opacity="1" /></linearGradient><linearGradient id="linear_1" x1="37.389997619027035%" y1="147.012445707571%" x2="57.16164181302985%" y2="-59.18012934399107%" gradientUnits="objectBoundingBox"><stop offset="0" stop-color="#B0B9E1" stop-opacity="1" /><stop offset="0.3396" stop-color="#B0B9E1" stop-opacity="1" /><stop offset="0.8657" stop-color="#EAF0F8" stop-opacity="1" /></linearGradient><linearGradient id="linear_2" x1="49.99641360147572%" y1="100.00782227004723%" x2="50.99641360147572%" y2="0.0010700048570447523%" gradientUnits="objectBoundingBox"><stop offset="0" stop-color="#B7ACE0" stop-opacity="1" /><stop offset="0.2267" stop-color="#B7ACE0" stop-opacity="1" /><stop offset="0.7893" stop-color="#E8E7FA" stop-opacity="1" /></linearGradient><linearGradient id="linear_3" x1="49.98518310546842%" y1="0.0008569557252102073%" x2="50.98518310546842%" y2="100.00304050631077%" gradientUnits="objectBoundingBox"><stop offset="0" stop-color="#ECF1FB" stop-opacity="1" /><stop offset="0.818" stop-color="#AFB0E7" stop-opacity="1" /></linearGradient><linearGradient id="linear_4" x1="49.98141006058599%" y1="100.00009801753937%" x2="50.98141006058599%" y2="0.004086385851078587%" gradientUnits="objectBoundingBox"><stop offset="0" stop-color="#CCD4F4" stop-opacity="1" /><stop offset="0.2267" stop-color="#CCD4F4" stop-opacity="1" /><stop offset="0.7893" stop-color="#ECF1FB" stop-opacity="1" /></linearGradient><linearGradient id="linear_5" x1="49.83937072753903%" y1="-0.015198142825051593%" x2="50.83937072753903%" y2="99.99744317269406%" gradientUnits="objectBoundingBox"><stop offset="0" stop-color="#ECF1FB" stop-opacity="1" /><stop offset="1" stop-color="#A6A8E2" stop-opacity="1" /></linearGradient><linearGradient id="linear_6" x1="74.99971223021582%" y1="6.698705035971213%" x2="24.993525179856103%" y2="93.31194244604313%" gradientUnits="objectBoundingBox"><stop offset="0" stop-color="#FFDB80" stop-opacity="1" /><stop offset="1" stop-color="#FFBB24" stop-opacity="1" /></linearGradient><linearGradient id="linear_7" x1="50.00980118736899%" y1="0.0031262406728585104%" x2="51.00980118736899%" y2="99.99268419403174%" gradientUnits="objectBoundingBox"><stop offset="0" stop-color="#F9FAFE" stop-opacity="1" /><stop offset="1" stop-color="#E5EDF7" stop-opacity="1" /></linearGradient><linearGradient id="linear_8" x1="49.99640546369474%" y1="100.00862688713161%" x2="50.99640546369474%" y2="-0.021207764198407288%" gradientUnits="objectBoundingBox"><stop offset="0" stop-color="#AFB0E7" stop-opacity="1" /><stop offset="0.2267" stop-color="#AFB0E7" stop-opacity="1" /><stop offset="1" stop-color="#ECF1FB" stop-opacity="1" /></linearGradient><linearGradient id="linear_9" x1="49.77878588300308%" y1="0.017339869907928636%" x2="50.77878588300308%" y2="100.00818808419392%" gradientUnits="objectBoundingBox"><stop offset="0" stop-color="#DDE1F6" stop-opacity="1" /><stop offset="0.01" stop-color="#DDE1F6" stop-opacity="1" /><stop offset="0.818" stop-color="#A6A8E2" stop-opacity="1" /></linearGradient><linearGradient id="linear_10" x1="50.00426689286387%" y1="0.10294682276635785%" x2="51.00426689286387%" y2="100.16969809865464%" gradientUnits="objectBoundingBox"><stop offset="0" stop-color="#FFDB80" stop-opacity="1" /><stop offset="1" stop-color="#FFBB24" stop-opacity="1" /></linearGradient><linearGradient id="linear_11" x1="49.99023199507503%" y1="99.9917086662687%" x2="50.99023199507503%" y2="-0.005597236253924677%" gradientUnits="objectBoundingBox"><stop offset="0" stop-color="#4F5C7C" stop-opacity="1" /><stop offset="1" stop-color="#274168" stop-opacity="1" /></linearGradient><linearGradient id="linear_12" x1="49.94489749455823%" y1="0.10294682276635785%" x2="50.94489749455823%" y2="100.16969809865464%" gradientUnits="objectBoundingBox"><stop offset="0" stop-color="#FFDB80" stop-opacity="1" /><stop offset="1" stop-color="#FFBB24" stop-opacity="1" /></linearGradient><linearGradient id="linear_13" x1="49.97075548334844%" y1="99.9917086662687%" x2="50.97075548334844%" y2="-0.005597236253924677%" gradientUnits="objectBoundingBox"><stop offset="0" stop-color="#4F5C7C" stop-opacity="1" /><stop offset="1" stop-color="#274168" stop-opacity="1" /></linearGradient><linearGradient id="linear_14" x1="50.001807460445605%" y1="-0.0011730974465355129%" x2="51.001807460445605%" y2="99.99706264144278%" gradientUnits="objectBoundingBox"><stop offset="0" stop-color="#CED3F4" stop-opacity="1" /><stop offset="0.1157" stop-color="#CED3F4" stop-opacity="1" /><stop offset="0.8472" stop-color="#C6D5F4" stop-opacity="1" /></linearGradient><linearGradient id="linear_15" x1="50.00053545346754%" y1="-0.0011730974465355129%" x2="51.00053545346754%" y2="99.99706264144278%" gradientUnits="objectBoundingBox"><stop offset="0" stop-color="#CED3F4" stop-opacity="1" /><stop offset="0.1157" stop-color="#CED3F4" stop-opacity="1" /><stop offset="0.8472" stop-color="#C6D5F4" stop-opacity="1" /></linearGradient><linearGradient id="linear_16" x1="49.999070494908096%" y1="-0.0011731467259913642%" x2="50.999070494908096%" y2="100.00126331620191%" gradientUnits="objectBoundingBox"><stop offset="0" stop-color="#DEE4FF" stop-opacity="1" /><stop offset="0.1157" stop-color="#DEE4FF" stop-opacity="1" /><stop offset="0.8472" stop-color="#C6D5F4" stop-opacity="1" /></linearGradient><linearGradient id="linear_17" x1="50.00918340196673%" y1="99.99198296766903%" x2="51.00918340196673%" y2="0.002935485653217195%" gradientUnits="objectBoundingBox"><stop offset="0" stop-color="#445677" stop-opacity="1" /><stop offset="1" stop-color="#293861" stop-opacity="1" /></linearGradient><linearGradient id="linear_18" x1="50.01307124506717%" y1="100.01384301271908%" x2="51.01307124506717%" y2="0.00247226306670178%" gradientUnits="objectBoundingBox"><stop offset="0" stop-color="#C3D5FD" stop-opacity="1" /><stop offset="1" stop-color="#1A90FC" stop-opacity="1" /></linearGradient><linearGradient id="linear_19" x1="50.008795106294166%" y1="99.99127431768173%" x2="51.008795106294166%" y2="0.004763523414497495%" gradientUnits="objectBoundingBox"><stop offset="0" stop-color="#4F5C7C" stop-opacity="1" /><stop offset="1" stop-color="#274168" stop-opacity="1" /></linearGradient></defs></svg>