<?xml version="1.0" standalone="no"?><!DOCTYPE svg PUBLIC "-//W3C//DTD SVG 1.1//EN" "http://www.w3.org/Graphics/SVG/1.1/DTD/svg11.dtd"><svg height="1116" node-id="1" sillyvg="true" template-height="1116" template-width="1238" version="1.1" viewBox="0 0 1238 1116" width="1238" xmlns="http://www.w3.org/2000/svg" xmlns:xlink="http://www.w3.org/1999/xlink"><defs node-id="125"><linearGradient gradientUnits="objectBoundingBox" id="linearGradient-1" node-id="7" spreadMethod="pad" x1="0.5" x2="0.5" y1="0" y2="0.860707"><stop offset="0" stop-color="#d2defb"></stop><stop offset="1" stop-color="#f3f4f8"></stop></linearGradient><linearGradient gradientUnits="objectBoundingBox" id="linearGradient-2" node-id="10" spreadMethod="pad" x1="0.5" x2="0.5" y1="0" y2="0.43909627"><stop offset="0" stop-color="#e5ecf8"></stop><stop offset="1" stop-color="#f3f4f6"></stop></linearGradient><linearGradient gradientUnits="objectBoundingBox" id="linearGradient-3" node-id="13" spreadMethod="pad" x1="0.5" x2="0.5" y1="0" y2="0.860707"><stop offset="0" stop-color="#d8e3fb"></stop><stop offset="1" stop-color="#f3f4f8"></stop></linearGradient><linearGradient gradientUnits="objectBoundingBox" id="linearGradient-4" node-id="16" spreadMethod="pad" x1="0.5" x2="0.5" y1="0" y2="0.43909627"><stop offset="0" stop-color="#e5ecf8"></stop><stop offset="1" stop-color="#f3f4f6"></stop></linearGradient><linearGradient gradientUnits="objectBoundingBox" id="linearGradient-5" node-id="19" spreadMethod="pad" x1="0.5" x2="0.5" y1="0" y2="0.860707"><stop offset="0" stop-color="#d8e3fb"></stop><stop offset="1" stop-color="#f3f4f8"></stop></linearGradient><linearGradient gradientUnits="objectBoundingBox" id="linearGradient-6" node-id="22" spreadMethod="pad" x1="0.5" x2="0.5" y1="0" y2="0.43909627"><stop offset="0" stop-color="#e5ecf8"></stop><stop offset="1" stop-color="#f3f4f6"></stop></linearGradient><linearGradient gradientUnits="objectBoundingBox" id="linearGradient-7" node-id="25" spreadMethod="pad" x1="0.5" x2="0.5" y1="0" y2="1"><stop offset="0" stop-color="#d4e0fc"></stop><stop offset="1" stop-color="#e0e8fe"></stop></linearGradient><linearGradient gradientUnits="objectBoundingBox" id="linearGradient-8" node-id="28" spreadMethod="pad" x1="0.5" x2="0.5" y1="0" y2="0.8802725"><stop offset="0" stop-color="#d0ddfc"></stop><stop offset="1" stop-color="#f3f4f8"></stop></linearGradient><linearGradient gradientUnits="objectBoundingBox" id="linearGradient-9" node-id="31" spreadMethod="pad" x1="0.5" x2="0.5" y1="0" y2="1"><stop offset="0" stop-color="#e8edf8"></stop><stop offset="1" stop-color="#f4f5f6"></stop></linearGradient><linearGradient gradientUnits="objectBoundingBox" id="linearGradient-10" node-id="34" spreadMethod="pad" x1="0.5" x2="0.5" y1="0" y2="0.8802725"><stop offset="0" stop-color="#d0ddfc"></stop><stop offset="1" stop-color="#f3f4f8"></stop></linearGradient><linearGradient gradientUnits="objectBoundingBox" id="linearGradient-11" node-id="37" spreadMethod="pad" x1="0.5" x2="0.5" y1="0" y2="1"><stop offset="0" stop-color="#e8edf8"></stop><stop offset="1" stop-color="#f4f5f6"></stop></linearGradient><linearGradient gradientUnits="objectBoundingBox" id="linearGradient-12" node-id="40" spreadMethod="pad" x1="0.5150312" x2="0.5" y1="0.45485553" y2="0.5489954"><stop offset="0" stop-color="#dbe7fc"></stop><stop offset="1" stop-color="#f3f5f6"></stop></linearGradient><filter height="2.913" id="filter-13" node-id="43" width="1.302" x="-0.151" y="-0.957"><feGaussianBlur color-interpolation-filters="linearRGB" in="SourceGraphic" result="result1" stdDeviation="22 22"></feGaussianBlur></filter><filter height="1.48" id="filter-14" node-id="45" width="1.071" x="-0.036" y="-0.24"><feGaussianBlur color-interpolation-filters="linearRGB" in="SourceGraphic" result="result1" stdDeviation="4 4"></feGaussianBlur></filter><filter height="1.692" id="filter-15" node-id="47" width="1.09" x="-0.045" y="-0.346"><feGaussianBlur color-interpolation-filters="linearRGB" in="SourceGraphic" result="result1" stdDeviation="3 3"></feGaussianBlur></filter></defs><g node-id="210"><g node-id="211"><g node-id="212"><path d="M 0.00 0.00 L 1238.00 0.00 L 1238.00 1116.00 L 0.00 1116.00 Z" fill="#ffffff" fill-rule="nonzero" group-id="1,2,3" id="矩形备份-23" node-id="53" stroke="none" target-height="1116" target-width="1238" target-x="0" target-y="0"></path><text align="center" editable="true" ellipsis="false" fill="#5480e5" flags="1" font-family="'Noto Sans CJK SC'" font-size="48" font-stretch="normal" font-style="normal" font-weight="500" group-id="1,2,3" height="71.04" id="～" letter-spacing="0" node-id="54" stroke="none" target-x="438" target-y="669.32" vertical-align="center" width="48" x="438" xml:space="preserve" y="725">～</text><g node-id="214"><g node-id="219"><path d="M 271.00 483.20 L 336.19 289.00 L 336.19 483.20 Z" fill="url(#linearGradient-1)" fill-opacity="0.35260883" fill-rule="evenodd" group-id="1,2,3,5,10" id="矩形" node-id="59" stroke="none" target-height="194.19989" target-width="65.18738" target-x="271" target-y="289"></path><path d="M 334.19 289.20 L 423.00 416.00 L 410.58 449.12 L 334.19 483.20 Z" fill="url(#linearGradient-2)" fill-opacity="0.35260883" fill-rule="evenodd" group-id="1,2,3,5,10" id="矩形备份-12" node-id="60" stroke="none" target-height="193.99997" target-width="88.81262" target-x="334.18738" target-y="289.19992"></path></g><g node-id="220"><path d="M 660.00 415.83 L 760.92 286.00 L 752.00 443.00 Z" fill="url(#linearGradient-3)" fill-rule="evenodd" group-id="1,2,3,5,11" id="矩形" node-id="62" stroke="none" target-height="157" target-width="100.92047" target-x="660" target-y="286"></path><path d="M 760.92 284.00 L 912.00 458.00 L 752.00 443.64 Z" fill="url(#linearGradient-4)" fill-rule="evenodd" group-id="1,2,3,5,11" id="矩形备份-12" node-id="63" stroke="none" target-height="174" target-width="160" target-x="752" target-y="284"></path></g><g node-id="221"><path d="M 838.00 551.83 L 911.00 422.00 L 904.55 579.00 Z" fill="url(#linearGradient-5)" fill-rule="evenodd" group-id="1,2,3,5,12" id="矩形" node-id="65" stroke="none" target-height="157" target-width="73" target-x="838" target-y="422"></path><path d="M 911.47 420.00 L 1021.00 594.00 L 905.00 579.64 Z" fill="url(#linearGradient-6)" fill-rule="evenodd" group-id="1,2,3,5,12" id="矩形备份-12" node-id="66" stroke="none" target-height="174" target-width="116" target-x="905" target-y="420"></path></g><g node-id="222"><g node-id="229"><path d="M 503.60 298.00 L 568.41 298.00 L 568.41 327.21 L 568.41 353.58 L 574.58 394.38 L 612.00 520.32 L 602.68 525.10 L 593.60 529.23 L 584.74 532.73 L 576.09 535.64 L 567.64 537.97 L 559.36 539.75 L 551.24 541.01 L 543.26 541.75 L 535.41 542.00 L 527.46 541.75 L 519.50 540.98 L 511.51 539.70 L 503.47 537.89 L 495.36 535.54 L 487.17 532.63 L 478.89 529.14 L 470.51 525.05 L 462.00 520.32 L 495.88 394.38 L 503.60 352.86 L 503.60 326.45 L 503.60 298.00 Z" fill="url(#linearGradient-7)" fill-opacity="0.65229726" fill-rule="evenodd" group-id="1,2,3,5,13,20" id="矩形" node-id="69" stroke="none" target-height="244" target-width="150" target-x="462" target-y="298"></path><path d="M 570.00 298.00 L 569.73 299.27 L 568.92 300.55 L 567.41 301.89 L 565.64 302.97 L 563.32 304.03 L 560.33 305.07 L 555.62 306.26 L 549.85 307.21 L 543.76 307.79 L 537.00 308.00 L 530.24 307.79 L 524.15 307.21 L 518.38 306.26 L 513.67 305.07 L 510.68 304.03 L 508.36 302.97 L 506.59 301.89 L 505.08 300.55 L 504.27 299.27 L 504.00 298.00 L 504.27 296.73 L 505.08 295.45 L 506.59 294.11 L 508.36 293.03 L 510.68 291.97 L 513.67 290.93 L 518.38 289.74 L 524.15 288.79 L 530.24 288.21 L 537.00 288.00 L 543.76 288.21 L 549.85 288.79 L 555.62 289.74 L 560.33 290.93 L 563.32 291.97 L 565.64 293.03 L 567.41 294.11 L 568.92 295.45 L 569.73 296.73 L 570.00 298.00 Z" fill="#e1e7ff" fill-opacity="0.65229726" fill-rule="evenodd" group-id="1,2,3,5,13,20" id="椭圆形" node-id="70" stroke="none" target-height="20" target-width="66" target-x="504" target-y="288"></path><g node-id="232"><path d="M 504.00 336.00 L 504.26 337.28 L 505.05 338.56 L 506.51 339.89 L 508.23 340.97 L 510.48 342.03 L 513.37 343.07 L 517.95 344.26 L 523.54 345.21 L 529.44 345.79 L 536.00 346.00 L 542.56 345.79 L 548.46 345.21 L 554.05 344.26 L 558.63 343.07 L 561.52 342.03 L 563.77 340.97 L 565.49 339.89 L 566.95 338.56 L 567.74 337.28 L 568.00 336.00" fill="none" group-id="1,2,3,5,13,20,23" id="路径" node-id="71" stroke="#aeaceb" stroke-linecap="butt" stroke-opacity="0.2749604" stroke-width="2" target-height="10" target-width="64" target-x="504" target-y="336"></path></g><g node-id="233"><path d="M 504.00 360.00 L 504.26 361.28 L 505.05 362.56 L 506.51 363.89 L 508.23 364.97 L 510.48 366.03 L 513.37 367.07 L 517.95 368.26 L 523.54 369.21 L 529.44 369.79 L 536.00 370.00 L 542.56 369.79 L 548.46 369.21 L 554.05 368.26 L 558.63 367.07 L 561.52 366.03 L 563.77 364.97 L 565.49 363.89 L 566.95 362.56 L 567.74 361.28 L 568.00 360.00" fill="none" group-id="1,2,3,5,13,20,24" id="路径" node-id="72" stroke="#aeaceb" stroke-linecap="butt" stroke-opacity="0.2749604" stroke-width="2" target-height="10" target-width="64" target-x="504" target-y="360"></path></g><path d="M 498.00 384.00 L 498.29 385.25 L 499.19 386.53 L 500.91 387.89 L 502.88 388.96 L 505.48 390.03 L 508.84 391.07 L 514.12 392.26 L 520.60 393.21 L 527.41 393.79 L 535.00 394.00 L 542.59 393.79 L 549.40 393.21 L 555.88 392.26 L 561.16 391.07 L 564.52 390.03 L 567.12 388.96 L 569.09 387.89 L 570.81 386.53 L 571.71 385.25 L 572.00 384.00" fill="none" group-id="1,2,3,5,13,20,25" id="路径" node-id="73" stroke="#aeaceb" stroke-linecap="butt" stroke-opacity="0.2749604" stroke-width="2" target-height="10" target-width="74" target-x="498" target-y="384"></path></g><g node-id="230"><path d="M 542.46 298.00 L 544.30 297.76 L 545.60 297.16 L 546.51 296.24 L 547.15 295.03 L 547.62 293.50 L 547.89 291.56 L 548.10 284.90 L 548.24 281.16 L 548.65 277.18 L 549.15 274.55 L 549.94 271.94 L 551.04 269.34 L 552.45 266.91 L 554.34 264.56 L 556.77 262.28 L 559.50 260.37 L 562.98 258.58 L 567.36 256.95 L 571.15 256.08 L 574.79 255.72 L 578.32 255.85 L 583.54 256.70 L 588.47 258.13 L 593.22 259.91 L 597.53 261.71 L 601.70 263.40 L 605.24 264.55 L 607.56 265.00 L 609.56 264.98 L 611.30 264.57 L 612.81 263.70 L 614.19 262.15 L 615.45 259.72 L 618.63 252.25 L 621.76 245.98 L 624.83 240.76 L 628.27 235.75 L 631.55 231.63 L 634.67 228.30 L 638.06 225.20 L 641.18 222.72 L 644.05 220.79 L 648.44 218.32 L 652.02 216.68 L 657.64 214.41 L 658.97 213.71 L 659.69 213.06 L 659.98 212.43 L 659.93 211.74 L 659.41 210.72 L 658.10 209.19 L 656.48 207.92 L 653.98 206.60 L 650.31 205.23 L 644.42 203.67 L 636.71 202.25 L 628.47 201.21 L 619.04 200.45 L 609.31 200.06 L 599.04 200.04 L 588.70 200.42 L 578.45 201.22 L 568.37 202.49 L 559.01 204.21 L 552.90 205.68 L 547.40 207.35 L 542.46 209.19 L 538.54 211.12 L 535.04 213.34 L 531.92 215.87 L 529.07 218.70 L 526.57 221.66 L 524.39 224.76 L 521.60 229.64 L 519.48 234.40 L 517.85 239.17 L 516.81 243.31 L 516.17 247.23 L 516.00 250.00 L 516.17 254.56 L 516.64 259.12 L 517.43 263.70 L 519.13 270.41 L 521.35 276.69 L 523.16 280.73 L 525.12 284.36 L 527.21 287.63 L 529.58 290.70 L 531.98 293.20 L 534.43 295.18 L 537.12 296.76 L 539.78 297.68 L 542.46 298.00 Z" fill="#e0e8ff" fill-opacity="0.65229726" fill-rule="evenodd" group-id="1,2,3,5,13,21" id="椭圆形" node-id="75" stroke="none" target-height="97.9603" target-width="143.98267" target-x="516" target-y="200.0397"></path><path d="M 542.16 298.00 L 543.99 297.78 L 545.28 297.26 L 546.16 296.46 L 546.80 295.40 L 547.26 294.06 L 547.53 292.38 L 547.73 286.57 L 547.87 283.30 L 548.27 279.83 L 549.12 276.40 L 550.63 272.98 L 552.01 270.88 L 553.88 268.83 L 556.30 266.82 L 558.98 265.16 L 562.42 263.60 L 566.77 262.16 L 570.51 261.38 L 574.14 261.01 L 577.68 261.02 L 582.94 261.57 L 587.91 262.56 L 597.13 265.11 L 601.38 266.27 L 605.01 267.01 L 607.37 267.22 L 609.42 267.06 L 611.20 266.58 L 612.77 265.70 L 614.16 264.27 L 615.38 262.16 L 619.05 254.57 L 622.74 248.01 L 626.45 242.37 L 630.52 236.95 L 634.35 232.38 L 637.96 228.58 L 643.51 223.40 L 647.98 219.72 L 654.53 214.72 L 655.77 213.52 L 655.98 212.89 L 655.65 212.50 L 654.11 212.15 L 649.39 212.00 L 648.35 212.22 L 646.99 212.90 L 645.20 214.24 L 642.63 216.64 L 639.44 220.00 L 632.51 227.83 L 624.79 236.27 L 620.71 240.31 L 616.67 243.87 L 613.85 246.04 L 611.15 247.79 L 608.55 249.18 L 607.09 249.52 L 605.44 249.39 L 603.48 248.70 L 600.58 247.12 L 597.23 244.85 L 590.33 239.90 L 586.74 237.70 L 583.32 236.17 L 580.99 235.57 L 578.81 235.50 L 576.71 235.94 L 571.83 237.37 L 564.59 239.57 L 560.54 241.08 L 556.32 242.97 L 552.23 245.25 L 548.39 247.99 L 546.05 250.10 L 543.98 252.45 L 542.16 255.07 L 540.97 256.59 L 539.62 257.66 L 538.08 258.34 L 535.51 258.81 L 532.64 258.71 L 529.71 258.19 L 526.77 257.41 L 521.41 255.71 L 519.08 255.07 L 517.51 254.86 L 516.65 254.98 L 516.19 255.38 L 516.00 256.10 L 516.17 260.07 L 516.64 264.06 L 517.42 268.06 L 519.09 273.90 L 521.29 279.40 L 523.07 282.91 L 525.00 286.08 L 527.08 288.95 L 529.40 291.61 L 531.78 293.79 L 534.22 295.54 L 536.86 296.91 L 539.49 297.71 L 542.16 298.00 Z" fill="#d7ddf3" fill-opacity="0.65229726" fill-rule="evenodd" group-id="1,2,3,5,13,21" id="椭圆形备份-7" node-id="76" stroke="none" target-height="86" target-width="139.98083" target-x="516" target-y="212"></path></g></g><g node-id="223"><path d="M 246.00 478.00 L 246.00 747.00 L 168.00 747.00 Z" fill="url(#linearGradient-8)" fill-opacity="0.733538" fill-rule="evenodd" group-id="1,2,3,5,14" id="矩形" node-id="78" stroke="none" target-height="269" target-width="78" target-x="168" target-y="478"></path><path d="M 246.54 477.00 L 420.00 698.04 L 281.76 742.97 L 246.00 747.00 Z" fill="url(#linearGradient-9)" fill-opacity="0.733538" fill-rule="evenodd" group-id="1,2,3,5,14" id="矩形备份-11" node-id="79" stroke="none" target-height="270" target-width="174" target-x="246" target-y="477"></path></g><g node-id="224"><path d="M 349.26 529.27 L 350.04 522.30 L 351.39 514.89 L 353.35 507.01 L 355.97 498.61 L 359.32 489.66 L 363.45 480.12 L 368.44 469.94 L 374.34 459.09 L 381.24 447.51 L 389.22 435.17 L 398.36 422.01 L 408.74 408.00 L 414.00 629.00 L 392.41 625.52 L 384.82 617.34 L 378.11 609.33 L 372.22 601.50 L 367.08 593.83 L 362.67 586.30 L 358.93 578.90 L 355.83 571.61 L 353.34 564.42 L 351.43 557.31 L 350.08 550.26 L 349.27 543.25 L 349.00 536.26 L 349.26 529.27 Z" fill="url(#linearGradient-10)" fill-opacity="0.4562872" fill-rule="evenodd" group-id="1,2,3,5,15" id="矩形" node-id="81" stroke="none" target-height="221" target-width="64.99997" target-x="349.00003" target-y="408"></path><path d="M 409.00 408.00 L 511.00 498.74 L 492.93 577.17 L 409.00 631.00 Z" fill="url(#linearGradient-11)" fill-opacity="0.4562872" fill-rule="evenodd" group-id="1,2,3,5,15" id="矩形备份-11" node-id="82" stroke="none" target-height="223.00122" target-width="102" target-x="409" target-y="408"></path></g><path d="M 1090.00 656.00 L 1089.74 661.62 L 1088.99 667.21 L 1087.75 672.79 L 1086.00 678.40 L 1083.71 684.03 L 1080.87 689.71 L 1077.07 696.02 L 1072.56 702.38 L 1067.27 708.79 L 1061.16 715.27 L 1054.15 721.82 L 1047.12 727.70 L 1039.33 733.61 L 1030.73 739.53 L 1021.26 745.47 L 1010.87 751.43 L 1000.73 756.76 L 989.82 762.05 L 978.10 767.30 L 965.52 772.49 L 952.05 777.62 L 938.81 782.27 L 924.98 786.76 L 910.55 791.09 L 895.48 795.25 L 875.42 800.28 L 854.48 804.96 L 832.63 809.29 L 810.71 813.11 L 788.09 816.53 L 764.76 819.56 L 741.38 822.09 L 717.51 824.20 L 693.13 825.86 L 668.72 827.04 L 644.01 827.76 L 619.00 828.00 L 593.99 827.76 L 569.28 827.04 L 544.87 825.86 L 520.49 824.20 L 496.62 822.09 L 473.24 819.56 L 449.91 816.53 L 427.29 813.11 L 405.37 809.29 L 383.52 804.96 L 362.58 800.28 L 342.52 795.25 L 327.45 791.09 L 313.02 786.76 L 299.19 782.27 L 285.95 777.62 L 272.48 772.49 L 259.90 767.30 L 248.18 762.05 L 237.27 756.76 L 227.13 751.43 L 216.74 745.47 L 207.27 739.53 L 198.67 733.61 L 190.88 727.70 L 183.85 721.82 L 176.84 715.27 L 170.73 708.79 L 165.44 702.38 L 160.93 696.02 L 157.13 689.71 L 154.29 684.03 L 152.00 678.40 L 150.25 672.79 L 149.01 667.21 L 148.26 661.62 L 148.00 656.00 L 148.26 650.38 L 149.01 644.79 L 150.25 639.21 L 152.00 633.60 L 154.29 627.97 L 157.13 622.29 L 160.93 615.98 L 165.44 609.62 L 170.73 603.21 L 176.84 596.73 L 183.85 590.18 L 190.88 584.30 L 198.67 578.39 L 207.27 572.47 L 216.74 566.53 L 227.13 560.57 L 237.27 555.24 L 248.18 549.95 L 259.90 544.70 L 272.48 539.51 L 285.95 534.38 L 299.19 529.73 L 313.02 525.24 L 327.45 520.91 L 342.52 516.75 L 362.58 511.72 L 383.52 507.04 L 405.37 502.71 L 427.29 498.89 L 449.91 495.47 L 473.24 492.44 L 496.62 489.91 L 520.49 487.80 L 544.87 486.14 L 569.28 484.96 L 593.99 484.24 L 619.00 484.00 L 644.01 484.24 L 668.72 484.96 L 693.13 486.14 L 717.51 487.80 L 741.38 489.91 L 764.76 492.44 L 788.09 495.47 L 810.71 498.89 L 832.63 502.71 L 854.48 507.04 L 875.42 511.72 L 895.48 516.75 L 910.55 520.91 L 924.98 525.24 L 938.81 529.73 L 952.05 534.38 L 965.52 539.51 L 978.10 544.70 L 989.82 549.95 L 1000.73 555.24 L 1010.87 560.57 L 1021.26 566.53 L 1030.73 572.47 L 1039.33 578.39 L 1047.12 584.30 L 1054.15 590.18 L 1061.16 596.73 L 1067.27 603.21 L 1072.56 609.62 L 1077.07 615.98 L 1080.87 622.29 L 1083.71 627.97 L 1086.00 633.60 L 1087.75 639.21 L 1088.99 644.79 L 1089.74 650.38 L 1090.00 656.00 Z" fill="url(#linearGradient-12)" fill-rule="evenodd" group-id="1,2,3,5" id="椭圆形" node-id="83" stroke="none" target-height="344" target-width="942" target-x="148" target-y="484"></path><path d="M 264.00 626.00 L 276.00 626.00 L 276.00 646.00 L 264.00 646.00 Z" fill="#b3ccff" fill-rule="nonzero" group-id="1,2,3,5,16" id="路径" node-id="85" stroke="none" target-height="20" target-width="12" target-x="264" target-y="626"></path><path d="M 271.00 630.00 L 294.00 630.00 L 282.50 610.00 L 271.00 590.00 L 259.50 610.00 L 248.00 630.00 Z" fill="#a8c4fc" fill-rule="nonzero" group-id="1,2,3,5,16" id="路径" node-id="86" stroke="none" target-height="40" target-width="46" target-x="248" target-y="590"></path><path d="M 270.00 620.00 L 290.00 620.00 L 280.00 603.00 L 270.00 586.00 L 260.00 603.00 L 250.00 620.00 Z" fill="#b9d1ff" fill-rule="nonzero" group-id="1,2,3,5,16" id="路径" node-id="87" stroke="none" target-height="34" target-width="40" target-x="250" target-y="586"></path><path d="M 271.00 608.00 L 288.00 608.00 L 279.50 593.00 L 271.00 578.00 L 262.50 593.00 L 254.00 608.00 Z" fill="#caddfd" fill-rule="nonzero" group-id="1,2,3,5,16" id="路径" node-id="88" stroke="none" target-height="30" target-width="34" target-x="254" target-y="578"></path><path d="M 939.00 611.00 L 951.00 611.00 L 951.00 631.00 L 939.00 631.00 Z" fill="#b3ccff" fill-opacity="0.5768927" fill-rule="nonzero" group-id="1,2,3,5,17" id="路径" node-id="90" stroke="none" target-height="20" target-width="12" target-x="939" target-y="611"></path><path d="M 946.00 615.00 L 969.00 615.00 L 957.50 595.00 L 946.00 575.00 L 934.50 595.00 L 923.00 615.00 Z" fill="#a8c4fc" fill-opacity="0.5768927" fill-rule="nonzero" group-id="1,2,3,5,17" id="路径" node-id="91" stroke="none" target-height="40" target-width="46" target-x="923" target-y="575"></path><path d="M 945.00 605.00 L 965.00 605.00 L 955.00 588.00 L 945.00 571.00 L 935.00 588.00 L 925.00 605.00 Z" fill="#b9d1ff" fill-opacity="0.5768927" fill-rule="nonzero" group-id="1,2,3,5,17" id="路径" node-id="92" stroke="none" target-height="34" target-width="40" target-x="925" target-y="571"></path><path d="M 946.00 593.00 L 963.00 593.00 L 954.50 578.00 L 946.00 563.00 L 937.50 578.00 L 929.00 593.00 Z" fill="#caddfd" fill-opacity="0.5768927" fill-rule="nonzero" group-id="1,2,3,5,17" id="路径" node-id="93" stroke="none" target-height="30" target-width="34" target-x="929" target-y="563"></path></g><g node-id="215"><path d="M 886.00 592.50 L 885.73 594.18 L 884.95 595.89 L 883.55 597.69 L 881.37 599.61 L 878.19 601.67 L 874.38 603.62 L 869.56 605.65 L 863.55 607.75 L 856.17 609.91 L 846.57 612.27 L 835.25 614.61 L 822.00 616.90 L 808.74 618.83 L 794.03 620.63 L 777.78 622.29 L 761.53 623.65 L 744.15 624.82 L 725.59 625.77 L 707.04 626.44 L 687.68 626.85 L 667.50 627.00 L 647.32 626.85 L 627.96 626.44 L 609.41 625.77 L 590.85 624.82 L 573.47 623.65 L 557.22 622.29 L 540.97 620.63 L 526.26 618.83 L 513.00 616.90 L 499.75 614.61 L 488.43 612.27 L 478.83 609.91 L 471.45 607.75 L 465.44 605.65 L 460.62 603.62 L 456.81 601.67 L 453.63 599.61 L 451.45 597.69 L 450.05 595.89 L 449.27 594.18 L 449.00 592.50 L 449.27 590.82 L 450.05 589.11 L 451.45 587.31 L 453.63 585.39 L 456.81 583.33 L 460.62 581.38 L 465.44 579.35 L 471.45 577.25 L 478.83 575.09 L 488.43 572.73 L 499.75 570.39 L 513.00 568.10 L 526.26 566.17 L 540.97 564.37 L 557.22 562.71 L 573.47 561.35 L 590.85 560.18 L 609.41 559.23 L 627.96 558.56 L 647.32 558.15 L 667.50 558.00 L 687.68 558.15 L 707.04 558.56 L 725.59 559.23 L 744.15 560.18 L 761.53 561.35 L 777.78 562.71 L 794.03 564.37 L 808.74 566.17 L 822.00 568.10 L 835.25 570.39 L 846.57 572.73 L 856.17 575.09 L 863.55 577.25 L 869.56 579.35 L 874.38 581.38 L 878.20 583.33 L 881.37 585.39 L 883.55 587.31 L 884.95 589.11 L 885.73 590.82 L 886.00 592.50 Z" fill="#c3dafd" fill-rule="evenodd" filter="url(#filter-13)" group-id="1,2,3,6" id="椭圆形备份-4" node-id="94" stroke="none" target-height="69" target-width="437" target-x="449" target-y="558"></path></g><path d="M 486.00 651.00 L 486.25 654.76 L 486.95 657.77 L 488.02 660.17 L 489.43 662.08 L 491.20 663.56 L 493.37 664.66 L 496.03 665.37 L 499.31 665.62" fill="none" group-id="1,2,3" id="路径-64" node-id="95" stroke="#b9ceef" stroke-linecap="butt" stroke-width="1" target-height="14.620178" target-width="13.308441" target-x="486" target-y="651"></path><path d="M 474.00 655.00 L 474.20 657.35 L 474.75 659.08 L 475.58 660.34 L 476.68 661.23 L 478.12 661.79 L 480.00 662.00" fill="none" group-id="1,2,3" id="路径-64备份" node-id="96" stroke="#b9ceef" stroke-linecap="butt" stroke-width="1" target-height="7" target-width="6" target-x="474" target-y="655"></path></g><g node-id="213"><g node-id="216"><path d="M 461.10 577.00 L 466.70 576.81 L 472.15 576.27 L 477.46 575.37 L 482.65 574.12 L 487.76 572.51 L 492.64 570.57 L 497.31 568.31 L 501.78 565.72 L 506.04 562.78 L 510.01 559.55 L 513.70 556.00 L 517.13 552.12 L 520.20 547.99 L 522.92 543.55 L 525.30 538.78 L 527.34 533.67 L 528.90 528.46 L 530.05 522.92 L 530.77 517.01 L 531.04 510.70 L 530.80 504.58 L 530.17 498.96 L 529.19 493.79 L 527.86 489.04 L 526.22 484.67 L 524.14 480.32 L 521.79 476.35 L 519.19 472.73 L 516.31 469.43 L 513.16 466.44 L 508.86 463.08 L 504.25 460.18 L 499.29 457.72 L 493.97 455.71 L 488.51 454.19 L 482.83 453.09 L 476.91 452.42 L 470.72 452.20 L 465.44 452.41 L 460.61 453.08 L 455.86 454.26 L 450.70 456.10 L 453.56 423.34 L 522.46 423.34 L 522.46 384.60 L 413.78 384.60 L 408.84 480.54 L 429.12 493.80 L 436.71 489.23 L 440.05 487.52 L 443.06 486.26 L 446.11 485.31 L 449.27 484.66 L 452.56 484.30 L 456.42 484.18 L 460.62 484.40 L 464.45 485.03 L 467.95 486.03 L 471.16 487.41 L 474.18 489.21 L 476.83 491.36 L 479.13 493.88 L 481.11 496.81 L 482.63 499.95 L 483.76 503.49 L 484.49 507.48 L 484.76 512.00 L 484.49 516.58 L 483.75 520.60 L 482.59 524.13 L 481.03 527.23 L 479.00 530.10 L 476.60 532.58 L 473.80 534.69 L 470.55 536.46 L 467.14 537.77 L 463.33 538.74 L 459.08 539.35 L 454.34 539.56 L 448.78 539.82 L 440.66 540.76 L 429.28 542.61 L 413.85 545.66 L 393.50 550.22 L 398.78 555.07 L 404.59 559.62 L 410.97 563.87 L 415.94 566.67 L 421.29 569.20 L 427.05 571.45 L 433.23 573.41 L 439.42 574.91 L 446.10 576.02 L 453.31 576.73 L 461.10 577.00 Z M 624.64 576.64 L 630.80 576.37 L 636.64 575.58 L 642.19 574.30 L 647.49 572.53 L 652.55 570.27 L 657.36 567.53 L 661.91 564.29 L 666.21 560.55 L 670.29 556.28 L 674.14 551.42 L 677.46 546.41 L 680.52 540.85 L 683.32 534.71 L 685.85 527.94 L 688.08 520.48 L 689.76 513.25 L 691.12 505.42 L 692.14 496.94 L 692.78 487.76 L 693.02 477.84 L 692.78 467.95 L 692.14 458.83 L 691.12 450.42 L 689.76 442.68 L 688.08 435.55 L 685.85 428.20 L 683.32 421.53 L 680.52 415.49 L 677.46 410.05 L 674.14 405.14 L 670.29 400.40 L 666.22 396.22 L 661.92 392.58 L 657.36 389.43 L 652.55 386.76 L 647.49 384.58 L 642.20 382.86 L 636.65 381.62 L 630.81 380.86 L 624.64 380.60 L 618.43 380.86 L 612.55 381.61 L 606.97 382.85 L 601.66 384.55 L 596.58 386.73 L 591.74 389.38 L 587.17 392.52 L 582.85 396.15 L 578.77 400.32 L 574.92 405.04 L 571.59 409.94 L 568.52 415.38 L 565.71 421.41 L 563.18 428.08 L 560.95 435.44 L 559.26 442.57 L 557.90 450.33 L 556.88 458.76 L 556.24 467.91 L 556.00 477.84 L 556.24 487.76 L 556.88 496.94 L 557.90 505.42 L 559.26 513.25 L 560.95 520.48 L 563.18 527.94 L 565.71 534.71 L 568.51 540.85 L 571.59 546.40 L 574.91 551.42 L 578.77 556.27 L 582.86 560.55 L 587.18 564.29 L 591.75 567.52 L 596.58 570.27 L 601.66 572.53 L 606.98 574.30 L 612.56 575.58 L 618.44 576.37 L 624.64 576.64 Z M 624.64 540.76 L 621.91 540.60 L 619.29 540.05 L 616.75 539.11 L 614.42 537.76 L 612.14 535.85 L 609.90 533.29 L 608.04 530.43 L 606.23 526.72 L 604.50 522.00 L 603.17 517.17 L 601.98 511.21 L 600.95 503.95 L 600.29 496.67 L 599.85 488.03 L 599.68 477.84 L 599.85 467.66 L 600.29 459.07 L 600.95 451.89 L 601.98 444.73 L 603.17 438.91 L 604.50 434.23 L 606.23 429.67 L 608.04 426.12 L 609.90 423.40 L 612.13 420.99 L 614.41 419.21 L 616.75 417.97 L 619.28 417.12 L 621.90 416.62 L 624.64 416.48 L 627.38 416.62 L 629.99 417.12 L 632.50 417.97 L 634.83 419.21 L 637.08 420.99 L 639.29 423.40 L 641.12 426.11 L 642.90 429.67 L 644.61 434.23 L 645.91 438.90 L 647.09 444.73 L 648.09 451.89 L 648.75 459.07 L 649.18 467.66 L 649.34 477.84 L 649.18 488.03 L 648.75 496.67 L 648.09 503.95 L 647.09 511.21 L 645.92 517.17 L 644.61 522.00 L 642.91 526.72 L 641.12 530.43 L 639.29 533.29 L 637.07 535.86 L 634.82 537.76 L 632.50 539.11 L 629.98 540.05 L 627.37 540.60 L 624.64 540.76 Z M 782.98 576.64 L 789.14 576.37 L 794.98 575.58 L 800.53 574.30 L 805.83 572.53 L 810.89 570.27 L 815.70 567.53 L 820.25 564.29 L 824.55 560.55 L 828.63 556.28 L 832.48 551.42 L 835.80 546.41 L 838.86 540.85 L 841.66 534.71 L 844.19 527.94 L 846.42 520.48 L 848.10 513.25 L 849.46 505.42 L 850.48 496.94 L 851.12 487.76 L 851.36 477.84 L 851.12 467.95 L 850.48 458.83 L 849.46 450.42 L 848.10 442.68 L 846.42 435.55 L 844.19 428.20 L 841.66 421.53 L 838.86 415.49 L 835.80 410.05 L 832.48 405.14 L 828.63 400.40 L 824.56 396.22 L 820.26 392.58 L 815.70 389.43 L 810.89 386.76 L 805.83 384.58 L 800.54 382.86 L 794.99 381.62 L 789.15 380.86 L 782.98 380.60 L 776.77 380.86 L 770.89 381.61 L 765.31 382.85 L 760.00 384.55 L 754.92 386.73 L 750.08 389.38 L 745.51 392.52 L 741.19 396.15 L 737.11 400.32 L 733.25 405.04 L 729.93 409.94 L 726.86 415.38 L 724.05 421.41 L 721.52 428.08 L 719.29 435.44 L 717.60 442.57 L 716.24 450.33 L 715.22 458.76 L 714.58 467.91 L 714.34 477.84 L 714.58 487.76 L 715.22 496.94 L 716.24 505.42 L 717.60 513.25 L 719.29 520.48 L 721.52 527.94 L 724.05 534.71 L 726.85 540.85 L 729.93 546.40 L 733.25 551.42 L 737.11 556.27 L 741.20 560.55 L 745.52 564.29 L 750.09 567.52 L 754.92 570.27 L 760.00 572.53 L 765.32 574.30 L 770.90 575.58 L 776.78 576.37 L 782.98 576.64 Z M 782.98 540.76 L 780.25 540.60 L 777.63 540.05 L 775.09 539.11 L 772.76 537.76 L 770.48 535.85 L 768.24 533.29 L 766.38 530.43 L 764.57 526.72 L 762.84 522.00 L 761.51 517.17 L 760.32 511.21 L 759.29 503.95 L 758.63 496.67 L 758.19 488.03 L 758.02 477.84 L 758.19 467.66 L 758.63 459.07 L 759.29 451.89 L 760.32 444.73 L 761.51 438.91 L 762.84 434.23 L 764.57 429.67 L 766.38 426.12 L 768.24 423.40 L 770.47 420.99 L 772.75 419.21 L 775.09 417.97 L 777.62 417.12 L 780.24 416.62 L 782.98 416.48 L 785.72 416.62 L 788.33 417.12 L 790.84 417.97 L 793.17 419.21 L 795.42 420.99 L 797.63 423.40 L 799.46 426.11 L 801.24 429.67 L 802.95 434.23 L 804.25 438.90 L 805.43 444.73 L 806.43 451.89 L 807.09 459.07 L 807.52 467.66 L 807.68 477.84 L 807.52 488.03 L 807.09 496.67 L 806.43 503.95 L 805.43 511.21 L 804.26 517.17 L 802.95 522.00 L 801.25 526.72 L 799.46 530.43 L 797.63 533.29 L 795.41 535.86 L 793.16 537.76 L 790.84 539.11 L 788.32 540.05 L 785.71 540.60 L 782.98 540.76 Z" fill="#77a0ea" fill-rule="nonzero" group-id="1,2,4,7" id="500" node-id="99" stroke="none" target-height="196.4" target-width="457.86" target-x="393.5" target-y="380.6"></path><path d="M 447.60 577.04 L 453.20 576.85 L 458.65 576.31 L 463.96 575.41 L 469.15 574.16 L 474.26 572.55 L 479.14 570.61 L 483.81 568.35 L 488.28 565.76 L 492.54 562.82 L 496.51 559.59 L 500.20 556.04 L 503.63 552.16 L 506.70 548.03 L 509.42 543.59 L 511.80 538.82 L 513.84 533.71 L 515.40 528.50 L 516.55 522.96 L 517.27 517.05 L 517.54 510.74 L 517.30 504.62 L 516.67 499.00 L 515.69 493.83 L 514.36 489.08 L 512.72 484.71 L 510.64 480.36 L 508.29 476.39 L 505.69 472.77 L 502.81 469.47 L 499.66 466.47 L 495.36 463.12 L 490.75 460.22 L 485.79 457.76 L 480.47 455.75 L 475.01 454.23 L 469.33 453.13 L 463.41 452.46 L 457.22 452.24 L 451.94 452.45 L 447.11 453.12 L 442.36 454.30 L 437.20 456.14 L 440.06 423.38 L 508.96 423.38 L 508.96 384.64 L 400.28 384.64 L 395.34 480.58 L 415.62 493.84 L 423.21 489.27 L 426.55 487.56 L 429.56 486.30 L 432.61 485.35 L 435.77 484.70 L 439.06 484.34 L 442.92 484.22 L 447.12 484.44 L 450.95 485.07 L 454.45 486.07 L 457.66 487.45 L 460.68 489.25 L 463.33 491.40 L 465.63 493.92 L 467.61 496.85 L 469.13 499.99 L 470.26 503.53 L 470.99 507.52 L 471.26 512.04 L 470.99 516.62 L 470.25 520.64 L 469.09 524.17 L 467.53 527.27 L 465.50 530.14 L 463.10 532.62 L 460.30 534.73 L 457.05 536.50 L 453.64 537.81 L 449.83 538.78 L 445.58 539.39 L 440.84 539.60 L 435.76 539.30 L 430.87 538.47 L 426.14 537.13 L 421.54 535.32 L 417.11 533.13 L 412.82 530.55 L 408.72 527.66 L 404.80 524.52 L 401.06 521.14 L 380.00 550.26 L 385.28 555.11 L 391.09 559.66 L 397.47 563.91 L 402.44 566.71 L 407.79 569.24 L 413.55 571.49 L 419.73 573.45 L 425.92 574.95 L 432.60 576.06 L 439.81 576.77 L 447.60 577.04 Z M 611.14 577.04 L 617.30 576.77 L 623.14 575.98 L 628.69 574.70 L 633.99 572.93 L 639.05 570.67 L 643.86 567.93 L 648.41 564.69 L 652.71 560.95 L 656.79 556.68 L 660.64 551.82 L 663.96 546.81 L 667.02 541.25 L 669.82 535.11 L 672.35 528.34 L 674.58 520.88 L 676.26 513.65 L 677.62 505.82 L 678.64 497.34 L 679.28 488.16 L 679.52 478.24 L 679.28 468.35 L 678.64 459.23 L 677.62 450.82 L 676.26 443.08 L 674.58 435.95 L 672.35 428.60 L 669.82 421.93 L 667.02 415.89 L 663.96 410.45 L 660.64 405.54 L 656.79 400.80 L 652.72 396.62 L 648.42 392.98 L 643.86 389.83 L 639.05 387.16 L 633.99 384.98 L 628.70 383.26 L 623.15 382.02 L 617.31 381.26 L 611.14 381.00 L 604.93 381.26 L 599.05 382.01 L 593.47 383.25 L 588.16 384.95 L 583.08 387.13 L 578.24 389.78 L 573.67 392.92 L 569.35 396.55 L 565.27 400.72 L 561.42 405.44 L 558.09 410.34 L 555.02 415.78 L 552.21 421.81 L 549.68 428.48 L 547.45 435.84 L 545.76 442.97 L 544.40 450.73 L 543.38 459.16 L 542.74 468.31 L 542.50 478.24 L 542.74 488.16 L 543.38 497.34 L 544.40 505.82 L 545.76 513.65 L 547.45 520.88 L 549.68 528.34 L 552.21 535.11 L 555.01 541.25 L 558.09 546.80 L 561.41 551.82 L 565.27 556.67 L 569.36 560.95 L 573.68 564.69 L 578.25 567.92 L 583.08 570.67 L 588.16 572.93 L 593.48 574.70 L 599.06 575.98 L 604.94 576.77 L 611.14 577.04 Z M 611.14 541.16 L 608.41 541.00 L 605.79 540.45 L 603.25 539.51 L 600.92 538.16 L 598.64 536.25 L 596.40 533.69 L 594.54 530.83 L 592.73 527.12 L 591.00 522.40 L 589.67 517.57 L 588.48 511.61 L 587.45 504.35 L 586.79 497.07 L 586.35 488.43 L 586.18 478.24 L 586.35 468.06 L 586.79 459.47 L 587.45 452.29 L 588.48 445.13 L 589.67 439.31 L 591.00 434.63 L 592.73 430.07 L 594.54 426.51 L 596.40 423.80 L 598.63 421.39 L 600.91 419.61 L 603.25 418.37 L 605.78 417.52 L 608.40 417.02 L 611.14 416.88 L 613.88 417.02 L 616.49 417.52 L 619.00 418.37 L 621.33 419.61 L 623.58 421.39 L 625.79 423.80 L 627.62 426.51 L 629.40 430.07 L 631.11 434.63 L 632.41 439.30 L 633.59 445.13 L 634.59 452.29 L 635.25 459.47 L 635.68 468.06 L 635.84 478.24 L 635.68 488.43 L 635.25 497.07 L 634.59 504.35 L 633.59 511.61 L 632.42 517.57 L 631.11 522.40 L 629.41 527.12 L 627.62 530.83 L 625.79 533.69 L 623.57 536.26 L 621.32 538.17 L 619.00 539.51 L 616.48 540.45 L 613.87 541.00 L 611.14 541.16 Z M 769.48 577.04 L 775.64 576.77 L 781.48 575.98 L 787.03 574.70 L 792.33 572.93 L 797.39 570.67 L 802.20 567.93 L 806.75 564.69 L 811.05 560.95 L 815.13 556.68 L 818.98 551.82 L 822.30 546.81 L 825.36 541.25 L 828.16 535.11 L 830.69 528.34 L 832.92 520.88 L 834.60 513.65 L 835.96 505.82 L 836.98 497.34 L 837.62 488.16 L 837.86 478.24 L 837.62 468.35 L 836.98 459.23 L 835.96 450.82 L 834.60 443.08 L 832.92 435.95 L 830.69 428.60 L 828.16 421.93 L 825.36 415.89 L 822.30 410.45 L 818.98 405.54 L 815.13 400.80 L 811.06 396.62 L 806.76 392.98 L 802.20 389.83 L 797.39 387.16 L 792.33 384.98 L 787.04 383.26 L 781.49 382.02 L 775.65 381.26 L 769.48 381.00 L 763.27 381.26 L 757.39 382.01 L 751.81 383.25 L 746.50 384.95 L 741.42 387.13 L 736.58 389.78 L 732.01 392.92 L 727.69 396.55 L 723.61 400.72 L 719.75 405.44 L 716.43 410.34 L 713.36 415.78 L 710.55 421.81 L 708.02 428.48 L 705.79 435.84 L 704.10 442.97 L 702.74 450.73 L 701.72 459.16 L 701.08 468.31 L 700.84 478.24 L 701.08 488.16 L 701.72 497.34 L 702.74 505.82 L 704.10 513.65 L 705.79 520.88 L 708.02 528.34 L 710.55 535.11 L 713.35 541.25 L 716.43 546.80 L 719.75 551.82 L 723.61 556.67 L 727.70 560.95 L 732.02 564.69 L 736.59 567.92 L 741.42 570.67 L 746.50 572.93 L 751.82 574.70 L 757.40 575.98 L 763.28 576.77 L 769.48 577.04 Z M 769.48 541.16 L 766.75 541.00 L 764.13 540.45 L 761.59 539.51 L 759.26 538.16 L 756.98 536.25 L 754.74 533.69 L 752.88 530.83 L 751.07 527.12 L 749.34 522.40 L 748.01 517.57 L 746.82 511.61 L 745.79 504.35 L 745.13 497.07 L 744.69 488.43 L 744.52 478.24 L 744.69 468.06 L 745.13 459.47 L 745.79 452.29 L 746.82 445.13 L 748.01 439.31 L 749.34 434.63 L 751.07 430.07 L 752.88 426.51 L 754.74 423.80 L 756.97 421.39 L 759.25 419.61 L 761.59 418.37 L 764.12 417.52 L 766.74 417.02 L 769.48 416.88 L 772.22 417.02 L 774.83 417.52 L 777.34 418.37 L 779.67 419.61 L 781.92 421.39 L 784.13 423.80 L 785.96 426.51 L 787.74 430.07 L 789.45 434.63 L 790.75 439.30 L 791.93 445.13 L 792.93 452.29 L 793.59 459.47 L 794.02 468.06 L 794.18 478.24 L 794.02 488.43 L 793.59 497.07 L 792.93 504.35 L 791.93 511.61 L 790.76 517.57 L 789.45 522.40 L 787.75 527.12 L 785.96 530.83 L 784.13 533.69 L 781.91 536.26 L 779.66 538.17 L 777.34 539.51 L 774.82 540.45 L 772.21 541.00 L 769.48 541.16 Z" fill="#c7d9fc" fill-rule="nonzero" group-id="1,2,4,7" id="500" node-id="100" stroke="none" target-height="196.03998" target-width="457.86" target-x="380" target-y="381"></path></g><g node-id="217"><path d="M 857.00 588.00 L 856.69 589.51 L 855.73 591.08 L 853.93 592.78 L 850.96 594.65 L 846.87 596.54 L 841.30 598.54 L 833.93 600.62 L 826.50 602.33 L 817.75 604.02 L 807.50 605.68 L 791.70 607.74 L 773.30 609.59 L 754.12 611.01 L 732.93 612.11 L 711.17 612.77 L 688.00 613.00 L 664.82 612.77 L 643.07 612.11 L 621.88 611.01 L 602.70 609.59 L 584.30 607.74 L 568.50 605.68 L 558.25 604.02 L 549.50 602.33 L 542.07 600.62 L 534.70 598.54 L 529.13 596.54 L 525.04 594.65 L 522.07 592.78 L 520.27 591.08 L 519.31 589.51 L 519.00 588.00 L 519.31 586.49 L 520.27 584.92 L 522.07 583.22 L 525.04 581.35 L 529.13 579.46 L 534.70 577.46 L 542.07 575.38 L 549.50 573.67 L 558.25 571.98 L 568.50 570.32 L 584.30 568.26 L 602.70 566.41 L 621.88 564.99 L 643.07 563.89 L 664.82 563.23 L 688.00 563.00 L 711.18 563.23 L 732.93 563.89 L 754.12 564.99 L 773.30 566.41 L 791.70 568.26 L 807.50 570.32 L 817.75 571.98 L 826.50 573.67 L 833.93 575.38 L 841.30 577.46 L 846.87 579.46 L 850.96 581.35 L 853.93 583.22 L 855.73 584.92 L 856.69 586.49 L 857.00 588.00 Z" fill="#deeaff" fill-rule="evenodd" filter="url(#filter-14)" group-id="1,2,4,8" id="椭圆形" node-id="101" stroke="none" target-height="50" target-width="338" target-x="519" target-y="563"></path></g><g node-id="218"><g node-id="227"><path d="M 755.00 646.00 L 754.76 646.89 L 754.01 647.84 L 752.50 648.91 L 749.90 650.11 L 746.48 651.26 L 741.84 652.45 L 735.71 653.68 L 726.11 655.14 L 714.06 656.49 L 701.26 657.53 L 686.61 658.34 L 671.43 658.83 L 655.00 659.00 L 638.57 658.83 L 623.39 658.34 L 608.74 657.53 L 595.94 656.49 L 583.89 655.14 L 574.29 653.68 L 568.16 652.45 L 563.52 651.26 L 560.10 650.11 L 557.50 648.91 L 555.99 647.84 L 555.24 646.89 L 555.00 646.00 L 555.24 645.11 L 555.99 644.16 L 557.50 643.09 L 560.10 641.89 L 563.52 640.74 L 568.16 639.55 L 574.29 638.32 L 583.89 636.86 L 595.94 635.51 L 608.74 634.47 L 623.39 633.66 L 638.57 633.17 L 655.00 633.00 L 671.43 633.17 L 686.61 633.66 L 701.26 634.47 L 714.06 635.51 L 726.11 636.86 L 735.71 638.32 L 741.84 639.55 L 746.48 640.74 L 749.90 641.89 L 752.50 643.09 L 754.01 644.16 L 754.76 645.11 L 755.00 646.00 Z" fill="#d7e7ff" fill-rule="evenodd" filter="url(#filter-15)" group-id="1,2,4,9,18" id="椭圆形备份-5" node-id="103" stroke="none" target-height="26" target-width="200" target-x="555" target-y="633"></path></g><g node-id="228"><g node-id="231"><g node-id="235"><path d="M 701.33 650.97 L 703.49 656.33 L 684.04 661.52 L 679.37 662.96 L 678.45 662.96 L 675.91 662.35 L 669.07 659.93 L 660.45 656.37 L 651.62 652.31 L 644.17 648.41 L 641.26 646.59 L 639.69 645.33 L 637.92 643.96 L 635.21 642.50 L 632.15 641.27 L 628.57 640.13 L 624.85 639.22 L 621.07 638.53 L 617.33 638.10 L 614.02 637.98 L 610.92 638.23 L 608.70 638.81 L 606.11 639.57 L 603.25 639.82 L 600.05 639.53 L 596.44 638.62 L 592.32 636.98 L 589.79 629.85 L 588.23 624.11 L 587.45 619.52 L 587.29 615.91 L 587.62 613.08 L 588.32 610.87 L 589.36 609.16 L 590.72 607.86 L 592.45 606.90 L 598.87 604.41 L 603.79 602.89 L 608.84 601.93 L 615.64 601.10 L 620.88 600.71 L 624.88 600.71 L 628.57 600.96 L 631.60 601.32 L 637.27 601.97 L 639.24 602.22 L 640.70 602.57 L 643.32 603.33 L 644.61 603.53 L 646.23 603.48 L 647.99 603.13 L 650.55 602.25 L 653.23 601.39 L 656.86 600.70 L 661.66 600.24 L 667.88 600.10 L 675.78 600.36 L 693.82 604.70 L 701.05 606.80 L 702.84 607.27 L 704.34 607.46 L 706.80 607.76 L 707.65 608.17 L 708.24 608.99 L 709.59 612.84 L 709.93 614.70 L 709.77 615.45 L 709.38 615.68 L 708.56 615.44 L 695.48 613.60 L 688.48 612.26 L 685.31 611.32 L 682.41 610.39 L 680.33 610.18 L 678.83 610.48 L 663.78 611.26 L 654.82 612.12 L 650.04 612.96 L 647.87 613.71 L 647.13 614.31 L 647.09 614.85 L 647.21 615.88 L 646.87 617.36 L 645.51 620.84 L 644.79 622.80 L 644.24 624.89 L 644.02 627.00 L 644.29 629.12 L 644.78 630.46 L 645.63 631.79 L 646.91 633.16 L 652.06 637.37 L 661.19 644.12 L 675.88 654.32 L 701.33 650.97 Z" fill="#ffffff" fill-rule="evenodd" group-id="1,2,4,9,19,22,26" id="路径-57" node-id="107" stroke="none" target-height="62.867126" target-width="122.63794" target-x="587.2901" target-y="600.09753"></path><path d="M 702.90 655.09 L 703.50 656.04 L 704.36 656.75 L 705.53 657.22 L 706.80 657.41 L 708.16 657.31 L 709.66 656.88 L 711.03 656.15 L 712.09 655.27 L 712.87 654.26 L 713.38 653.10 L 713.51 652.00 L 713.28 650.89 L 712.67 649.94 L 711.81 649.23 L 710.65 648.75 L 709.38 648.56 L 708.01 648.67 L 706.51 649.09 L 705.14 649.83 L 704.09 650.70 L 703.30 651.72 L 702.80 652.87 L 702.67 653.98 L 702.90 655.09 Z" fill="#ffd3bd" fill-rule="evenodd" group-id="1,2,4,9,19,22,26" id="椭圆形" node-id="108" stroke="none" target-height="8.846008" target-width="10.837524" target-x="702.66876" target-y="648.56494"></path><path d="M 646.65 627.98 L 647.65 629.74 L 649.05 631.19 L 650.89 632.37 L 652.96 633.18 L 655.30 633.67 L 657.98 633.83 L 660.67 633.63 L 663.47 633.06 L 666.42 632.07 L 669.22 630.73 L 671.64 629.20 L 673.71 627.48 L 675.53 625.50 L 676.87 623.51 L 677.79 621.50 L 678.30 619.37 L 678.30 617.36 L 677.80 615.40 L 676.80 613.64 L 675.40 612.19 L 673.56 611.01 L 671.49 610.20 L 669.14 609.71 L 666.46 609.55 L 663.78 609.75 L 660.98 610.32 L 658.03 611.31 L 655.23 612.65 L 652.81 614.18 L 650.74 615.90 L 648.92 617.88 L 647.58 619.87 L 646.66 621.88 L 646.15 624.01 L 646.15 626.02 L 646.65 627.98 Z" fill="#fedcdc" fill-rule="evenodd" group-id="1,2,4,9,19,22,26" id="椭圆形" node-id="109" stroke="none" target-height="24.286133" target-width="32.151794" target-x="646.1475" target-y="609.5469"></path><path d="M 639.74 626.83 L 640.17 627.33 L 641.05 627.69 L 642.62 627.84 L 645.18 627.64 L 648.75 626.92 L 652.51 625.82 L 656.81 624.25 L 661.00 622.39 L 664.47 620.56 L 667.54 618.60 L 669.52 616.97 L 670.55 615.77 L 670.93 614.90 L 670.89 614.24 L 670.46 613.74 L 669.59 613.38 L 668.01 613.23 L 665.45 613.44 L 661.88 614.16 L 658.12 615.25 L 653.82 616.83 L 649.63 618.68 L 646.16 620.51 L 643.09 622.47 L 641.11 624.10 L 640.08 625.30 L 639.70 626.17 L 639.74 626.83 Z" fill="#fedcdc" fill-rule="evenodd" group-id="1,2,4,9,19,22,26" id="椭圆形备份-3" node-id="110" stroke="none" target-height="14.612061" target-width="31.22815" target-x="639.7016" target-y="613.2307"></path><g node-id="237"><path d="M 650.48 621.76 L 651.05 623.42 L 652.04 624.90 L 653.48 626.21 L 655.18 627.24 L 657.20 628.04 L 659.58 628.61 L 662.02 628.86 L 664.64 628.81 L 667.46 628.44 L 670.22 627.73 L 672.67 626.79 L 674.84 625.64 L 676.83 624.22 L 678.40 622.72 L 679.59 621.14 L 680.44 619.38 L 680.80 617.64 L 680.71 615.88 L 680.13 614.21 L 679.15 612.74 L 677.70 611.43 L 676.00 610.40 L 673.99 609.60 L 671.61 609.03 L 669.17 608.77 L 666.55 608.82 L 663.72 609.20 L 660.96 609.91 L 658.52 610.84 L 656.35 612.00 L 654.35 613.41 L 652.79 614.91 L 651.60 616.50 L 650.75 618.26 L 650.39 620.00 L 650.48 621.76 Z" fill="#483e3e" fill-rule="evenodd" group-id="1,2,4,9,19,22,26,28" id="椭圆形" node-id="111" stroke="none" target-height="20.088196" target-width="30.410034" target-x="650.3882" target-y="608.7744"></path></g><path d="M 601.69 603.82 L 599.74 603.47 L 596.56 603.50 L 588.83 604.18 L 584.45 604.50 L 579.86 604.59 L 575.29 604.29 L 570.96 603.46 L 568.21 602.52 L 565.73 601.21 L 563.47 599.52 L 559.42 596.03 L 555.34 592.76 L 547.51 586.56 L 543.95 583.49 L 540.97 580.51 L 539.22 578.39 L 537.83 576.27 L 536.77 574.13 L 530.71 559.13 L 519.10 563.82 L 525.80 580.66 L 530.40 591.00 L 533.44 596.75 L 535.36 599.50 L 536.53 600.49 L 542.06 603.67 L 556.44 612.85 L 557.57 615.65 L 552.70 618.84 L 548.99 620.75 L 546.18 621.71 L 544.08 621.98 L 542.50 621.74 L 541.04 621.04 L 537.77 619.08 L 529.35 613.57 L 519.19 606.72 L 509.24 600.06 L 501.44 595.11 L 498.58 593.58 L 497.74 593.39 L 495.55 594.56 L 492.77 596.58 L 491.50 597.80 L 490.59 599.00 L 490.09 600.26 L 490.19 601.38 L 490.86 602.41 L 493.12 605.11 L 499.71 612.15 L 508.46 620.72 L 513.23 625.05 L 517.89 629.03 L 522.54 632.65 L 526.48 635.31 L 529.18 636.78 L 531.22 637.53 L 532.75 637.76 L 539.93 638.12 L 550.92 638.96 L 563.67 639.78 L 570.17 640.02 L 576.18 640.06 L 581.91 639.82 L 586.40 639.30 L 589.23 638.64 L 591.12 637.86 L 592.32 636.98 L 592.85 636.18 L 593.07 635.30 L 593.01 634.28 L 591.87 630.55 L 591.18 628.28 L 590.63 625.48 L 590.49 622.47 L 590.98 618.78 L 591.61 617.47 L 593.02 615.74 L 596.81 612.22 L 600.65 608.72 L 602.14 607.02 L 602.85 605.75 L 602.93 604.98 L 602.59 604.36 L 601.69 603.82 Z" fill="#3484fe" fill-rule="evenodd" group-id="1,2,4,9,19,22,26" id="路径-58" node-id="112" stroke="none" target-height="80.93414" target-width="112.84796" target-x="490.08588" target-y="559.12555"></path><path d="M 530.75 556.46 L 519.93 555.94 L 513.54 555.91 L 510.16 556.15 L 508.65 556.50 L 507.80 557.21 L 507.43 558.38 L 507.43 559.77 L 507.70 561.33 L 508.54 564.05 L 509.02 565.24 L 517.67 566.90 L 523.83 564.41 L 529.77 560.02 L 530.75 556.46 Z" fill="#373535" fill-rule="evenodd" group-id="1,2,4,9,19,22,26" id="路径-59" node-id="113" stroke="none" target-height="10.990906" target-width="23.320984" target-x="507.42755" target-y="555.90814"></path><path d="M 497.42 591.94 L 490.57 592.69 L 485.61 593.66 L 482.12 594.77 L 479.79 595.95 L 478.30 597.15 L 476.96 598.91 L 476.35 600.39 L 476.29 601.70 L 476.71 602.93 L 477.69 604.16 L 483.85 605.48 L 489.39 603.24 L 495.59 596.93 L 497.42 591.94 Z" fill="#373535" fill-rule="evenodd" group-id="1,2,4,9,19,22,26" id="路径-60" node-id="114" stroke="none" target-height="13.535828" target-width="21.136597" target-x="476.28564" target-y="591.9397"></path><path d="M 709.59 607.84 L 713.74 610.52 L 716.10 612.43 L 717.24 613.74 L 717.63 614.65 L 717.56 615.32 L 716.98 616.16 L 715.96 616.84 L 714.35 617.35 L 711.91 617.60 L 708.66 618.91 L 709.59 607.84 Z" fill="#ffd2bd" fill-rule="evenodd" group-id="1,2,4,9,19,22,26" id="路径-61" node-id="115" stroke="none" target-height="11.075806" target-width="8.972595" target-x="708.66003" target-y="607.8367"></path></g><path d="M 676.01 626.86 L 677.79 628.26 L 678.59 628.61 L 679.48 628.53 L 680.35 628.07 L 681.27 627.17 L 681.92 626.06 L 682.16 625.10 L 682.02 624.22 L 681.49 623.53 L 679.70 622.14 L 681.02 619.63 L 681.99 617.17 L 682.63 614.75 L 682.96 612.28 L 682.93 610.01 L 682.57 607.91 L 681.85 605.94 L 680.78 604.25 L 679.35 602.82 L 677.61 601.78 L 675.72 601.15 L 673.63 600.92 L 671.51 601.08 L 669.30 601.61 L 666.98 602.52 L 664.79 603.73 L 662.64 605.26 L 660.52 607.15 L 658.73 605.75 L 657.94 605.41 L 657.05 605.48 L 656.17 605.94 L 655.26 606.85 L 654.60 607.95 L 654.37 608.91 L 654.51 609.80 L 655.04 610.48 L 676.01 626.86 Z" fill="#fbea34" fill-rule="nonzero" group-id="1,2,4,9,19,22,27" id="形状备份-4" node-id="116" stroke="none" target-height="27.68689" target-width="28.586975" target-x="654.36993" target-y="600.9226"></path></g><path d="M 592.55 631.28 L 604.75 628.75 L 614.67 627.15 L 622.63 626.32 L 628.92 626.11 L 633.82 626.39 L 637.56 627.03 L 640.38 627.96 L 642.45 629.10 L 643.94 630.43" fill="none" group-id="1,2,4,9,19" id="路径-62" node-id="117" stroke="#3484fe" stroke-linecap="round" stroke-width="3" target-height="5.1693115" target-width="51.38794" target-x="592.5511" target-y="626.11145"></path><path d="M 595.88 610.85 L 647.53 615.05" fill="none" group-id="1,2,4,9,19" id="路径-63" node-id="118" stroke="#3484fe" stroke-linecap="round" stroke-width="3" target-height="4.1954956" target-width="51.644775" target-x="595.88385" target-y="610.852"></path></g><path d="M 522.00 635.00 L 522.25 638.76 L 522.95 641.77 L 524.02 644.17 L 525.43 646.08 L 527.20 647.56 L 529.37 648.66 L 532.03 649.37 L 535.31 649.62" fill="none" group-id="1,2,4,9" id="路径-64备份-2" node-id="119" stroke="#b9ceef" stroke-linecap="butt" stroke-width="1" target-height="14.620178" target-width="13.308472" target-x="522" target-y="635"></path><path d="M 510.00 639.00 L 510.20 641.35 L 510.75 643.08 L 511.58 644.34 L 512.68 645.23 L 514.12 645.79 L 516.00 646.00" fill="none" group-id="1,2,4,9" id="路径-64备份-3" node-id="120" stroke="#b9ceef" stroke-linecap="butt" stroke-width="1" target-height="7" target-width="6" target-x="510" target-y="639"></path></g></g><text align="center" editable="true" ellipsis="false" fill="#5480e5" flags="1" font-family="'Noto Sans CJK SC'" font-size="48" font-stretch="normal" font-style="normal" font-weight="500" group-id="1,2" height="71.04" id="抱歉，服务器出错了～" letter-spacing="0" node-id="121" stroke="none" target-x="379" target-y="909.32" vertical-align="center" width="480" x="379" xml:space="preserve" y="965">抱歉，服务器出错了～</text></g></g></svg>
